<svg width="138" height="88" viewBox="0 0 138 88" fill="none" xmlns="http://www.w3.org/2000/svg">
<g clip-path="url(#clip0_1_72)">
<path fill-rule="evenodd" clip-rule="evenodd" d="M76.8223 54.229L77.0837 51.6478L66.4307 51.7089L65.2461 60.5027L75.9073 60.6086L76.4465 57.5022L80.2699 58.3572C80.2699 58.3572 80.1106 60.8284 79.7838 61.5776C79.457 62.3267 78.3868 63.4503 76.1769 63.4503H65.193C65.193 63.4503 60.9366 63.6132 61.1572 61.2519C61.3778 58.8905 62.3377 52.5109 62.3377 52.5109C62.3377 52.5109 62.3377 48.92 65.8915 48.92H77.4146C77.4146 48.92 81.1318 48.92 81.1318 50.634C81.1318 52.348 81.0215 53.6386 81.0215 53.6386L76.8223 54.229Z" fill="#2F82C3"/>
<path fill-rule="evenodd" clip-rule="evenodd" d="M85.3636 63.3487L87.2998 49.1359H90.4819L97.3688 57.5553L106.523 49.026H109.762L107.814 63.3487H104.043L105.338 53.6428L96.9399 61.7934H96.1311L89.9958 53.427L88.4844 63.3487H85.3636Z" fill="#2F82C3"/>
<path fill-rule="evenodd" clip-rule="evenodd" d="M133.613 48.973H116.057L114.055 63.6173H131.93L132.204 60.7186H118.385L118.932 57.2254L127.036 57.144V54.5466H119.353L119.729 51.6641H133.494L133.613 48.973Z" fill="#2F82C3"/>
<path fill-rule="evenodd" clip-rule="evenodd" d="M32.7231 63.3445L44.569 48.8672H48.2861L56.2514 63.3445H51.7868L50.063 60.1812H39.0341L36.8283 63.3445H32.7231ZM45.7536 52.0835L41.342 57.5023H48.6088L45.7536 52.0835Z" fill="#2F82C3"/>
<path fill-rule="evenodd" clip-rule="evenodd" d="M32.523 72.6107C32.523 72.6107 25.8281 62.8926 30.4438 52.1852C35.0596 41.4779 41.7505 37.7893 51.5213 31.4219C61.2921 25.0544 71.5367 17.4738 73.7792 15.1369C76.0218 12.8 78.5747 9.64478 78.5747 9.64478C78.5747 9.64478 65.724 17.5674 57.2195 23.145C48.715 28.7226 43.5601 30.7949 35.8725 37.9929C28.185 45.1908 24.6516 53.1013 25.5585 59.6519C26.4612 67.7537 32.5026 72.6107 32.5026 72.6107" fill="#BF2A2D"/>
<path fill-rule="evenodd" clip-rule="evenodd" d="M26.0976 67.4809C26.0976 67.4809 19.4068 57.7628 24.0185 47.0554C28.6302 36.3481 35.3251 32.6595 45.1 26.2921C54.8749 19.9246 65.1154 12.344 67.3538 10.0071C69.5923 7.67019 72.1535 4.51904 72.1535 4.51904C72.1535 4.51904 59.3028 12.4376 50.7983 18.0152C42.2938 23.5928 37.1388 25.6447 29.4471 32.8386C21.7555 40.0325 18.2263 47.9592 19.1331 54.5262C20.0358 62.6239 26.0976 67.4809 26.0976 67.4809Z" fill="#BF2A2D"/>
<path fill-rule="evenodd" clip-rule="evenodd" d="M19.7662 62.9822C19.7662 62.9822 13.0713 53.2641 17.6871 42.5608C22.3029 31.8575 28.9938 28.1608 38.7645 21.773C48.5353 15.3852 58.7799 7.82494 61.0225 5.48804C63.265 3.15114 65.818 0 65.818 0C65.818 0 52.9836 7.91043 44.4628 13.4962C35.942 19.0819 30.8033 21.142 23.1158 28.34C15.4282 35.5379 11.8949 43.4606 12.7976 50.0275C13.7044 58.1252 19.7662 62.9822 19.7662 62.9822Z" fill="#BF2A2D"/>
<path fill-rule="evenodd" clip-rule="evenodd" d="M0 85.6469V77.6591H1.06204V84.7023H5.0161V85.6469H0ZM10.1425 83.7822L11.1637 83.9084C11.0298 84.4557 10.7146 84.9419 10.2691 85.2886C9.78303 85.6305 9.19697 85.8023 8.60253 85.7771C8.22592 85.7989 7.84898 85.7405 7.49681 85.6057C7.14463 85.4709 6.82533 85.2629 6.56015 84.9955C6.04039 84.394 5.77789 83.6135 5.82897 82.8214C5.77747 81.9959 6.04991 81.1828 6.58874 80.5537C6.83793 80.2859 7.14196 80.0746 7.48025 79.9341C7.81853 79.7936 8.18316 79.7272 8.54943 79.7395C8.90492 79.7278 9.25879 79.7923 9.58715 79.9286C9.91552 80.0648 10.2107 80.2697 10.4529 80.5293C10.9816 81.1456 11.2483 81.943 11.1964 82.7522C11.1964 82.8133 11.1964 82.8988 11.1964 83.0168H6.85017C6.85301 83.544 7.04582 84.0526 7.39344 84.4499C7.54931 84.6171 7.73935 84.7491 7.95075 84.8369C8.16215 84.9247 8.38998 84.9663 8.61887 84.9588C8.95031 84.9677 9.27568 84.8691 9.54612 84.6779C9.83255 84.4409 10.0428 84.1251 10.1507 83.77M6.91144 82.1863H10.1793C10.1741 81.792 10.0456 81.4091 9.81163 81.0911C9.66559 80.908 9.47889 80.7613 9.26623 80.6624C9.05358 80.5634 8.82079 80.5151 8.58619 80.5212C8.37393 80.5162 8.16284 80.5541 7.9656 80.6324C7.76836 80.7108 7.58904 80.828 7.43837 80.9771C7.11838 81.3046 6.93576 81.7414 6.92778 82.1985M16.2206 84.9303C15.9104 85.2084 15.5537 85.4303 15.1668 85.5858C14.8177 85.7145 14.4483 85.7793 14.0761 85.7771C13.5437 85.8114 13.0177 85.6458 12.6015 85.313C12.4345 85.1638 12.3019 84.9803 12.213 84.775C12.1242 84.5698 12.0811 84.3477 12.0868 84.1242C12.0839 83.8512 12.1514 83.582 12.2829 83.3425C12.4052 83.1183 12.5787 82.9258 12.7894 82.7807C13.0077 82.6339 13.2494 82.5251 13.5043 82.4591C13.7922 82.3914 14.0842 82.3425 14.3784 82.3125C14.9753 82.2575 15.5651 82.1429 16.1389 81.9705C16.1389 81.8402 16.1389 81.7547 16.1389 81.7181C16.1558 81.5654 16.1398 81.4108 16.0919 81.2648C16.044 81.1187 15.9653 80.9846 15.8612 80.8713C15.5393 80.6292 15.14 80.512 14.7379 80.5415C14.3781 80.5132 14.0183 80.5972 13.7085 80.7817C13.4503 81.0029 13.277 81.3065 13.2183 81.6407L12.2543 81.5105C12.3183 81.15 12.4667 80.8097 12.6873 80.5171C12.9155 80.2432 13.2173 80.0398 13.5574 79.9308C13.9837 79.7884 14.4313 79.7195 14.8808 79.7273C15.2966 79.7116 15.7117 79.7709 16.1063 79.9023C16.3681 79.9898 16.6039 80.1409 16.7925 80.342C16.9489 80.5356 17.0542 80.7652 17.0989 81.0097C17.1401 81.3091 17.1565 81.6114 17.1479 81.9135V83.2285C17.1311 83.8061 17.153 84.3841 17.2132 84.9588C17.2556 85.2034 17.3399 85.4389 17.4624 85.655H16.3963C16.2854 85.4309 16.2188 85.1876 16.2002 84.9385M16.1185 82.7481C15.5983 82.9344 15.0583 83.0601 14.5091 83.1227C14.2149 83.1525 13.9254 83.2181 13.6472 83.3181C13.4801 83.377 13.3367 83.4884 13.2388 83.6357C13.1483 83.7737 13.1001 83.9349 13.0999 84.0998C13.0963 84.2248 13.1218 84.349 13.1742 84.4627C13.2266 84.5764 13.3046 84.6765 13.4021 84.7552C13.6518 84.9456 13.9628 85.0383 14.2763 85.0158C14.6298 85.0218 14.9789 84.9363 15.2893 84.7675C15.5736 84.6171 15.8026 84.3804 15.9429 84.0916C16.065 83.7795 16.1193 83.4451 16.1022 83.1105L16.1185 82.7481ZM22.4213 85.655V84.9262C22.2515 85.2025 22.0101 85.4281 21.7226 85.5792C21.4351 85.7304 21.1121 85.8016 20.7874 85.7853C20.3325 85.7877 19.8872 85.6545 19.5089 85.4026C19.1113 85.1399 18.7968 84.77 18.6021 84.3359C18.3808 83.8419 18.272 83.3053 18.2834 82.7644C18.2763 82.2264 18.3763 81.6922 18.5776 81.1929C18.7455 80.7504 19.0502 80.3726 19.4476 80.114C19.8329 79.8613 20.2853 79.7294 20.7466 79.7354C21.0603 79.7313 21.3704 79.8033 21.65 79.9451C21.9297 80.087 22.1705 80.2944 22.3519 80.5497V77.6998H23.3322V85.6876L22.4213 85.655ZM19.3046 82.7644C19.2573 83.3562 19.4239 83.9454 19.7744 84.4255C19.9032 84.5954 20.0692 84.7338 20.2599 84.8299C20.4505 84.9261 20.6607 84.9775 20.8744 84.9802C21.088 84.983 21.2995 84.937 21.4925 84.8458C21.6856 84.7546 21.8552 84.6205 21.9883 84.454C22.3276 83.9817 22.4869 83.4043 22.4377 82.8255C22.489 82.2091 22.326 81.5938 21.9761 81.083C21.8431 80.9089 21.6712 80.7682 21.4741 80.6721C21.2769 80.576 21.06 80.5271 20.8405 80.5293C20.6288 80.5263 20.4194 80.573 20.2292 80.6656C20.0391 80.7583 19.8734 80.8943 19.7458 81.0626C19.4112 81.5568 19.2556 82.1499 19.3046 82.7441M24.8926 77.6469H25.8811V78.7705H24.8926V77.6469ZM24.8926 79.8494H25.8811V85.6346H24.8926V79.8494ZM27.3802 85.6346V79.8616H28.2707V80.6759C28.4682 80.3724 28.7415 80.1253 29.0638 79.959C29.3861 79.7927 29.7462 79.7128 30.1089 79.7273C30.4409 79.7249 30.77 79.7886 31.077 79.9145C31.3421 80.013 31.5732 80.1854 31.7428 80.4112C31.8962 80.6284 32.002 80.8753 32.0532 81.1359C32.098 81.4514 32.1158 81.7701 32.1063 82.0886V85.6469H31.126V82.1252C31.1416 81.822 31.1014 81.5184 31.0075 81.2295C30.9303 81.0287 30.786 80.8605 30.599 80.7532C30.3895 80.6327 30.1506 80.5721 29.9087 80.5782C29.5078 80.5716 29.1194 80.7171 28.8222 80.9853C28.5158 81.2499 28.3647 81.7507 28.3647 82.4916V85.655L27.3802 85.6346ZM33.4461 86.115L34.402 86.2575C34.411 86.3818 34.4453 86.503 34.5029 86.6136C34.5605 86.7242 34.6401 86.8219 34.7369 86.9008C35.034 87.0964 35.3862 87.192 35.7418 87.1736C36.113 87.1948 36.4816 87.0994 36.7956 86.9008C37.048 86.7123 37.2259 86.4414 37.2981 86.1354C37.3667 85.7212 37.3913 85.3009 37.3716 84.8815C37.1751 85.1231 36.9256 85.3166 36.6424 85.4471C36.3592 85.5777 36.0497 85.6419 35.7377 85.6346C35.3818 85.6523 35.027 85.5834 34.7039 85.4337C34.3807 85.284 34.0991 85.0581 33.8832 84.7756C33.4391 84.1784 33.2076 83.4506 33.2256 82.7074C33.2211 82.1833 33.324 81.6638 33.5278 81.1807C33.7072 80.7415 34.0109 80.3638 34.402 80.0937C34.8024 79.8376 35.2702 79.7058 35.7459 79.715C36.0733 79.7084 36.3978 79.7786 36.693 79.92C36.9882 80.0615 37.2458 80.2702 37.4451 80.5293V79.8331H38.356V84.857C38.3961 85.5084 38.3016 86.1611 38.0783 86.7746C37.8876 87.1556 37.5819 87.4674 37.2041 87.6662C36.7459 87.8952 36.2378 88.0072 35.7254 87.9919C35.1292 88.0198 34.5396 87.8572 34.0425 87.5278C33.8273 87.3662 33.6575 87.152 33.5495 86.906C33.4415 86.66 33.3988 86.3904 33.4257 86.1232M34.2427 82.6463C34.192 83.2355 34.351 83.8235 34.692 84.3074C34.8331 84.4716 35.0082 84.6035 35.2053 84.6939C35.4024 84.7842 35.6167 84.831 35.8337 84.831C36.0506 84.831 36.265 84.7842 36.4621 84.6939C36.6591 84.6035 36.8343 84.4716 36.9754 84.3074C37.3175 83.8362 37.4798 83.2587 37.4329 82.6789C37.4746 82.1047 37.3063 81.5349 36.959 81.0748C36.8214 80.9085 36.6487 80.7744 36.4531 80.6822C36.2575 80.59 36.0439 80.542 35.8276 80.5415C35.6138 80.5407 35.4025 80.5879 35.2095 80.6795C35.0165 80.7711 34.8466 80.9049 34.7124 81.0708C34.3753 81.5259 34.213 82.0863 34.2549 82.6504M44.9489 85.6469V78.5995H42.2978V77.6591H48.666V78.5995H46.0068V85.6469H44.9489ZM49.6341 85.6469V77.6591H50.6185V80.5089C50.8275 80.2505 51.0928 80.0428 51.3943 79.9017C51.6958 79.7606 52.0256 79.6898 52.3586 79.6947C52.7483 79.6848 53.1343 79.7715 53.4819 79.9471C53.7839 80.0961 54.0259 80.343 54.1682 80.6474C54.3233 81.0622 54.3942 81.5037 54.3765 81.9461V85.6102H53.3921V81.9461C53.4258 81.5618 53.3119 81.1792 53.0735 80.8754C52.9542 80.7595 52.8119 80.6699 52.6557 80.6124C52.4994 80.5549 52.3328 80.5307 52.1666 80.5415C51.8791 80.5415 51.5968 80.6188 51.3497 80.7654C51.1026 80.9038 50.9086 81.12 50.7982 81.3802C50.6747 81.7218 50.6192 82.0841 50.6349 82.4469V85.6143L49.6341 85.6469ZM55.8634 85.6469V79.8616H56.7498V80.7369C56.8992 80.4241 57.1136 80.1466 57.3788 79.9227C57.5655 79.7958 57.786 79.7277 58.012 79.7273C58.3723 79.7359 58.7231 79.8445 59.025 80.0407L58.686 80.9568C58.4699 80.8189 58.2194 80.7442 57.9629 80.741C57.7519 80.7398 57.5464 80.8085 57.3788 80.9364C57.2023 81.0715 57.0747 81.2601 57.0153 81.4738C56.9011 81.843 56.8446 82.2275 56.8478 82.6138V85.6469H55.8634ZM59.2456 82.7522C59.2456 81.6815 59.5438 80.8835 60.1442 80.3705C60.6529 79.9398 61.3029 79.7108 61.9701 79.7273C62.3335 79.7142 62.6957 79.777 63.0333 79.9116C63.371 80.0463 63.6767 80.2497 63.9308 80.5089C64.1952 80.8009 64.3986 81.1424 64.529 81.5136C64.6595 81.8848 64.7144 82.2782 64.6906 82.6708C64.7198 83.2752 64.6051 83.8779 64.3556 84.4295C64.1361 84.8511 63.7946 85.1972 63.3753 85.4229C62.9452 85.6593 62.4612 85.7813 61.9701 85.7771C61.604 85.7922 61.2388 85.7304 60.8982 85.5957C60.5576 85.4611 60.2493 85.2566 59.9931 84.9955C59.454 84.3766 59.1836 83.5697 59.2415 82.7522M60.2504 82.7522C60.205 83.3488 60.3809 83.9414 60.7447 84.4173C60.898 84.5906 61.0866 84.7294 61.2979 84.8245C61.5091 84.9195 61.7383 84.9687 61.9701 84.9687C62.2019 84.9687 62.4311 84.9195 62.6424 84.8245C62.8536 84.7294 63.0422 84.5906 63.1955 84.4173C63.5553 83.9289 63.7264 83.3276 63.6775 82.7237C63.7223 82.1397 63.5492 81.5598 63.1915 81.0952C63.0381 80.9219 62.8496 80.7831 62.6383 80.6881C62.427 80.593 62.1978 80.5438 61.966 80.5438C61.7342 80.5438 61.5051 80.593 61.2938 80.6881C61.0825 80.7831 60.8939 80.9219 60.7406 81.0952C60.3757 81.569 60.1996 82.1607 60.2463 82.7563M69.6617 85.6509V84.8C69.4642 85.1077 69.1907 85.3595 68.8673 85.5313C68.544 85.7032 68.1818 85.7892 67.8154 85.7812C67.4839 85.7838 67.1556 85.7172 66.8514 85.5858C66.5926 85.4819 66.3648 85.3137 66.1897 85.0972C66.0375 84.8773 65.9344 84.6274 65.8874 84.3644C65.84 84.0615 65.8209 83.7548 65.8302 83.4484V79.8657H66.8106V83.0738C66.7989 83.4197 66.8194 83.7659 66.8718 84.1079C66.9285 84.3544 67.0738 84.5717 67.2803 84.7186C67.4982 84.8687 67.759 84.9444 68.0237 84.9344C68.3111 84.9326 68.5929 84.8554 68.8407 84.7105C69.0888 84.5734 69.2831 84.3567 69.3921 84.0957C69.5143 83.7313 69.5683 83.3477 69.5514 82.9639V79.8657H70.5481V85.6509H69.6617ZM71.9084 86.1313L72.8683 86.2738C72.8773 86.3981 72.9116 86.5193 72.9692 86.6299C73.0268 86.7405 73.1064 86.8382 73.2032 86.9171C73.4982 87.114 73.8495 87.2097 74.204 87.1899C74.5767 87.2122 74.9469 87.1168 75.262 86.9171C75.5144 86.7286 75.6922 86.4577 75.7644 86.1517C75.8352 85.7377 75.8598 85.3172 75.8379 84.8977C75.644 85.1361 75.3985 85.3276 75.1198 85.458C74.8411 85.5885 74.5364 85.6544 74.2285 85.6509C73.872 85.6689 73.5165 85.6001 73.1926 85.4505C72.8688 85.3008 72.5864 85.0748 72.3699 84.7919C71.9258 84.1947 71.6944 83.4668 71.7123 82.7237C71.7065 82.1999 71.8079 81.6804 72.0105 81.197C72.1898 80.7578 72.4936 80.38 72.8846 80.11C73.2874 79.8558 73.7559 79.7242 74.2326 79.7313C74.5599 79.7256 74.884 79.7963 75.1791 79.9377C75.4741 80.079 75.7319 80.2872 75.9319 80.5456V79.8494H76.8428V84.857C76.8828 85.5084 76.7883 86.1611 76.565 86.7746C76.3747 87.1572 76.0671 87.4695 75.6868 87.6662C75.2302 87.8957 74.7233 88.0077 74.2122 87.9919C73.6146 88.0198 73.0237 87.8572 72.5252 87.5278C72.3114 87.3648 72.1427 87.1505 72.0349 86.9048C71.927 86.6592 71.8835 86.3902 71.9084 86.1232M72.7253 82.6463C72.6748 83.2366 72.837 83.8255 73.1828 84.3074C73.3201 84.4746 73.4936 84.6087 73.6902 84.6997C73.8869 84.7906 74.1016 84.8361 74.3184 84.8326C74.5352 84.8354 74.75 84.7901 74.9471 84.7C75.1442 84.6098 75.3187 84.4771 75.458 84.3115C75.8017 83.8408 75.9653 83.2633 75.9196 82.683C75.9636 82.1086 75.7951 81.5379 75.4458 81.0789C75.3076 80.9097 75.1331 80.7736 74.9352 80.6806C74.7373 80.5876 74.5209 80.5401 74.302 80.5415C74.0877 80.541 73.876 80.5883 73.6823 80.6798C73.4887 80.7714 73.318 80.905 73.1828 81.0708C72.8457 81.5259 72.6834 82.0863 72.7253 82.6504M78.3337 85.6469V77.6591H79.3181V80.5089C79.5286 80.251 79.7947 80.0439 80.0967 79.9029C80.3988 79.7619 80.7289 79.6907 81.0623 79.6947C81.4518 79.6861 81.8375 79.7728 82.1857 79.9471C82.4853 80.0965 82.7246 80.3436 82.8637 80.6474C83.0249 81.0606 83.0959 81.5034 83.0721 81.9461V85.6102H82.0876V81.9461C82.1213 81.5618 82.0074 81.1792 81.769 80.8754C81.6488 80.7596 81.5058 80.6701 81.3489 80.6126C81.192 80.5551 81.0249 80.5309 80.8581 80.5415C80.5706 80.5421 80.2885 80.6194 80.0412 80.7654C79.7942 80.9027 79.6012 81.1195 79.4938 81.3802C79.3667 81.7209 79.3097 82.0837 79.3263 82.4469V85.6143L78.3337 85.6469ZM88.0024 77.6591H89.0644V85.6469H88.0024V77.6591ZM90.8127 85.6469V79.8616H91.6991V80.6759C91.8974 80.3701 92.1726 80.1213 92.4971 79.9542C92.8217 79.7871 93.1845 79.7074 93.5495 79.7232C93.8815 79.7204 94.2107 79.7841 94.5176 79.9105C94.7809 80.0102 95.0104 80.1825 95.1793 80.4072C95.3328 80.6243 95.4385 80.8712 95.4898 81.1318C95.5324 81.4475 95.5501 81.7661 95.5429 82.0845V85.6428H94.5584V82.1212C94.5719 81.818 94.5318 81.5148 94.44 81.2255C94.3613 81.0255 94.2174 80.8577 94.0315 80.7491C93.8218 80.629 93.583 80.5685 93.3412 80.5741C92.9392 80.5685 92.5499 80.7139 92.2505 80.9812C91.9483 81.2458 91.7971 81.7466 91.7971 82.4876V85.6509L90.8127 85.6469ZM97.0583 85.6469V79.8616H97.9447V80.6759C98.1431 80.3701 98.4182 80.1213 98.7428 79.9542C99.0673 79.7871 99.4301 79.7074 99.7951 79.7232C100.127 79.7208 100.456 79.7845 100.763 79.9105C101.027 80.0102 101.256 80.1825 101.425 80.4072C101.579 80.6236 101.683 80.871 101.731 81.1318C101.774 81.4475 101.792 81.7661 101.784 82.0845V85.6428H100.796V82.1212C100.809 81.8186 100.772 81.5159 100.686 81.2255C100.606 81.0258 100.463 80.8582 100.277 80.7491C100.068 80.628 99.8287 80.5674 99.5868 80.5741C99.1859 80.5675 98.7975 80.7131 98.5002 80.9812C98.1939 81.2458 98.0427 81.7466 98.0427 82.4876V85.6509L97.0583 85.6469ZM102.928 82.7522C102.928 81.6815 103.23 80.8835 103.831 80.3705C104.344 79.9343 105.003 79.705 105.677 79.7273C106.041 79.7137 106.403 79.7763 106.741 79.9109C107.078 80.0456 107.384 80.2493 107.638 80.5089C107.903 80.8006 108.107 81.142 108.238 81.5132C108.369 81.8844 108.425 82.2779 108.402 82.6708C108.43 83.2755 108.314 83.8783 108.063 84.4295C107.843 84.8511 107.502 85.1972 107.082 85.4229C106.652 85.6593 106.168 85.7813 105.677 85.7771C105.311 85.7927 104.946 85.7312 104.605 85.5965C104.264 85.4618 103.956 85.257 103.7 84.9955C103.16 84.377 102.888 83.5702 102.944 82.7522M103.962 82.7522C103.915 83.3483 104.089 83.9408 104.452 84.4173C104.605 84.5906 104.794 84.7294 105.005 84.8245C105.216 84.9195 105.445 84.9687 105.677 84.9687C105.909 84.9687 106.138 84.9195 106.349 84.8245C106.561 84.7294 106.749 84.5906 106.903 84.4173C107.264 83.9295 107.436 83.3281 107.389 82.7237C107.432 82.1392 107.258 81.5593 106.899 81.0952C106.745 80.9219 106.557 80.7831 106.345 80.6881C106.134 80.593 105.905 80.5438 105.673 80.5438C105.441 80.5438 105.212 80.593 105.001 80.6881C104.79 80.7831 104.601 80.9219 104.448 81.0952C104.086 81.5707 103.912 82.1615 103.958 82.7563M111.171 85.6509L108.945 79.8616H109.991L111.241 83.3262C111.375 83.7008 111.498 84.0876 111.612 84.4906C111.698 84.1853 111.821 83.8189 111.976 83.3914L113.271 79.8616H114.284L112.082 85.6469L111.171 85.6509ZM118.965 84.9344C118.654 85.2135 118.296 85.4355 117.907 85.5899C117.559 85.7188 117.191 85.7837 116.82 85.7812C116.288 85.8171 115.761 85.6513 115.346 85.3171C115.179 85.1679 115.046 84.9844 114.957 84.7791C114.868 84.5738 114.825 84.3518 114.831 84.1283C114.83 83.8644 114.894 83.6042 115.016 83.3701C115.139 83.1361 115.316 82.9352 115.534 82.7848C115.752 82.638 115.994 82.5292 116.249 82.4631C116.536 82.3951 116.828 82.3462 117.123 82.3166C117.72 82.2616 118.309 82.147 118.883 81.9746C118.883 81.8443 118.883 81.7588 118.883 81.7222C118.899 81.5692 118.882 81.4145 118.834 81.2685C118.785 81.1225 118.706 80.9885 118.601 80.8754C118.282 80.6318 117.883 80.5144 117.482 80.5456C117.122 80.5173 116.763 80.6013 116.453 80.7858C116.196 81.0082 116.023 81.3112 115.963 81.6448L114.999 81.5145C115.063 81.1541 115.211 80.8138 115.432 80.5212C115.657 80.2456 115.958 80.0406 116.298 79.9308C116.724 79.7884 117.171 79.7195 117.621 79.7273C118.037 79.7113 118.452 79.7706 118.846 79.9023C119.107 79.9893 119.342 80.1406 119.529 80.342C119.685 80.5363 119.791 80.7654 119.839 81.0097C119.88 81.3091 119.897 81.6114 119.888 81.9135V83.2285C119.873 83.806 119.894 84.3838 119.949 84.9588C119.992 85.2034 120.076 85.4389 120.199 85.655H119.157C119.048 85.4302 118.982 85.1873 118.961 84.9385M118.879 82.7481C118.359 82.9344 117.819 83.0601 117.27 83.1227C116.976 83.1525 116.686 83.2181 116.408 83.3181C116.241 83.377 116.097 83.4884 115.999 83.6357C115.886 83.8101 115.84 84.0194 115.869 84.2251C115.899 84.4307 116.001 84.619 116.159 84.7552C116.409 84.9453 116.719 85.0379 117.033 85.0158C117.388 85.0225 117.738 84.9369 118.05 84.7675C118.333 84.6157 118.562 84.3794 118.704 84.0916C118.824 83.7789 118.878 83.445 118.863 83.1105L118.879 82.7481ZM123.556 84.7838L123.699 85.6509C123.455 85.7077 123.206 85.7378 122.956 85.7405C122.673 85.753 122.392 85.6941 122.139 85.5695C121.957 85.4709 121.813 85.3148 121.73 85.1257C121.624 84.75 121.583 84.359 121.608 83.9695V80.6229H120.885V79.8616H121.608V78.4245L122.592 77.8382V79.8738H123.581V80.6352H122.592V84.0184C122.58 84.2005 122.598 84.3835 122.645 84.5598C122.679 84.6398 122.738 84.7068 122.813 84.7512C122.916 84.8041 123.032 84.828 123.148 84.8204C123.293 84.8181 123.438 84.8045 123.581 84.7797M124.553 77.6713H125.537V78.7949H124.553V77.6713ZM124.553 79.8738H125.537V85.6591H124.553V79.8738ZM126.673 82.7644C126.673 81.6937 126.975 80.8957 127.576 80.3827C128.073 79.9541 128.711 79.7211 129.369 79.7273C129.732 79.7142 130.094 79.777 130.432 79.9116C130.77 80.0463 131.075 80.2497 131.33 80.5089C131.595 80.8006 131.799 81.142 131.93 81.5132C132.061 81.8844 132.117 82.2779 132.093 82.6708C132.124 83.2757 132.007 83.8789 131.754 84.4295C131.538 84.8517 131.197 85.1982 130.778 85.4229C130.347 85.66 129.861 85.782 129.369 85.7771C129.003 85.7924 128.639 85.7307 128.299 85.596C127.959 85.4613 127.651 85.2567 127.396 84.9955C126.856 84.377 126.584 83.5702 126.64 82.7522M127.657 82.7522C127.612 83.3475 127.785 83.939 128.143 84.4173C128.297 84.5906 128.485 84.7294 128.697 84.8245C128.908 84.9195 129.137 84.9687 129.369 84.9687C129.601 84.9687 129.83 84.9195 130.041 84.8245C130.252 84.7294 130.441 84.5906 130.594 84.4173C130.955 83.9295 131.128 83.3281 131.08 82.7237C131.124 82.1392 130.949 81.5593 130.59 81.0952C130.437 80.9219 130.248 80.7831 130.037 80.6881C129.826 80.593 129.597 80.5438 129.365 80.5438C129.133 80.5438 128.904 80.593 128.693 80.6881C128.481 80.7831 128.293 80.9219 128.139 81.0952C127.779 81.5712 127.607 82.162 127.653 82.7563M133.249 85.6509V79.8616H134.136V80.6759C134.334 80.3701 134.609 80.1213 134.934 79.9542C135.258 79.7871 135.621 79.7074 135.986 79.7232C136.319 79.7211 136.65 79.7848 136.958 79.9105C137.219 80.0113 137.445 80.1835 137.612 80.4072C137.767 80.6234 137.873 80.8707 137.922 81.1318C137.969 81.4471 137.988 81.7659 137.98 82.0845V85.6428H136.991V82.1212C137.005 81.818 136.964 81.5148 136.873 81.2255C136.795 81.0247 136.651 80.8565 136.464 80.7491C136.255 80.6286 136.016 80.568 135.774 80.5741C135.373 80.5675 134.985 80.7131 134.687 80.9812C134.381 81.2458 134.23 81.7466 134.23 82.4876V85.6509H133.249Z" fill="black"/>
</g>
<defs>
<clipPath id="clip0_1_72">
<rect width="138" height="88" fill="white"/>
</clipPath>
</defs>
</svg>
